# xmcd CD database file
#
# Track frame offsets:
#	150
#	13074
#	36353
#	53976
#	63951
#	76977
#	92601
#	103021
#	108649
#	125938
#	143631
#	161818
#	173186
#	196465
#
# Disc length: 2821 seconds
#
# Revision: 0
# Processed by: cddbd v1.5.1PL0 Copyright (c) Steve Scherf et al.
# Submitted via: CDex 1.51
#
DISCID=c60b030e
DTITLE=Carolyn Wonderland - Alcohol and Salvation
DYEAR=2001
DGENRE=Blues
TTITLE0=I'm Innocent
TTITLE1=I'm Out Sick
TTITLE2=How Many Crowes
TTITLE3=Brick Walls
TTITLE4=The Only Girl You Know
TTITLE5=Worst Day of My Life
TTITLE6=Bad Girl
TTITLE7=Beer
TTITLE8=Pieces of a Postcard
TTITLE9=Feed Me to the Lions
TTITLE10=Sober
TTITLE11=I'm the Man
TTITLE12=Gospel Song
TTITLE13=I Don't Wanna Fall For You
EXTD=YEAR: 2001
EXTT0=
EXTT1=
EXTT2=
EXTT3=
EXTT4=
EXTT5=
EXTT6=
EXTT7=
EXTT8=
EXTT9=
EXTT10=
EXTT11=
EXTT12=
EXTT13=
PLAYORDER=
